<?xml version="1.0" ?><!DOCTYPE svg  PUBLIC '-//W3C//DTD SVG 1.1//EN'  'http://www.w3.org/Graphics/SVG/1.1/DTD/svg11.dtd'><svg enable-background="new 0 0 512 512" height="512px" id="Layer_1" version="1.1" viewBox="0 0 512 512" width="512px" xml:space="preserve" xmlns="http://www.w3.org/2000/svg" xmlns:xlink="http://www.w3.org/1999/xlink"><g id="Facebook"><g><path d="M257,0C115.614,0,1,114.614,1,256s114.614,256,256,256s256-114.614,256-256S398.386,0,257,0z M257,484.002    c-125.92,0-228-102.08-228-228.002S131.08,28,257,28s228,102.08,228,228S382.92,484.002,257,484.002z"/><path d="M257,40C137.708,40,41,136.706,41,256s96.706,216,216,216s216-96.706,216-216C473,136.708,376.292,40,257,40z     M333,155.098l-33.354,0.016c-26.15,0-31.214,12.486-31.214,30.808v28.404h62.372l-8.122,63.286h-54.25V416h-65.046V277.612H149    v-63.286h54.388v-34.672C203.388,125.494,236.31,96,284.4,96c23.034,0,42.832,1.724,48.6,2.494V155.098z"/></g></g></svg>