<?xml version="1.0" ?><!DOCTYPE svg  PUBLIC '-//W3C//DTD SVG 1.1//EN'  'http://www.w3.org/Graphics/SVG/1.1/DTD/svg11.dtd'><svg enable-background="new 0 0 512 512" height="512px" id="Layer_1" version="1.1" viewBox="0 0 512 512" width="512px" xml:space="preserve" xmlns="http://www.w3.org/2000/svg" xmlns:xlink="http://www.w3.org/1999/xlink"><g id="Instagram"><path d="M319.59,230.632h36.902V331.81c0,13.066-10.624,23.68-23.68,23.68H181.188c-13.062,0-23.686-10.614-23.686-23.68V230.632   h36.892c-3.186,7.836-4.976,16.396-4.976,25.366c0,37.256,30.31,67.586,67.58,67.586c37.266,0,67.576-30.33,67.576-67.586   C324.576,247.028,322.776,238.47,319.59,230.632z M256.994,299.494c23.974,0,43.506-19.512,43.506-43.496   c0-9.472-3.086-18.216-8.236-25.366c-7.906-10.952-20.748-18.136-35.266-18.136s-27.36,7.184-35.276,18.136   c-5.15,7.148-8.226,15.894-8.23,25.366C213.494,279.982,233.006,299.494,256.994,299.494z M353.174,160.07h-43.946v43.946h43.946   V160.07z M473.002,256c0,119.294-96.708,216-216.002,216S41,375.294,41,256S137.708,40,257,40   C376.294,40,473.002,136.706,473.002,256z M380.576,180.18c-0.006-26.338-21.426-47.754-47.764-47.754H181.188   c-26.338,0-47.764,21.422-47.764,47.76v151.628c0,26.338,21.426,47.76,47.764,47.76h151.628c26.338,0,47.76-21.422,47.76-47.76   L380.576,180.18L380.576,180.18z M513,256c0,141.386-114.616,256-256,256S1,397.384,1,256S115.616,0,257,0S513,114.614,513,256z    M485,256c0-125.922-102.08-228-228-228S29,130.078,29,256s102.08,228.002,228,228.002S485,381.92,485,256z"/></g></svg>