<?xml version="1.0" encoding="UTF-8"?>
<!DOCTYPE svg PUBLIC "-//W3C//DTD SVG 1.1//EN" "http://www.w3.org/Graphics/SVG/1.1/DTD/svg11.dtd">
<!-- Creator: CorelDRAW X7 -->
<svg xmlns="http://www.w3.org/2000/svg" xml:space="preserve" width="210mm" height="297mm" version="1.1" style="shape-rendering:geometricPrecision; text-rendering:geometricPrecision; image-rendering:optimizeQuality; fill-rule:evenodd; clip-rule:evenodd"
viewBox="0 0 21000 29700"
 xmlns:xlink="http://www.w3.org/1999/xlink">
 <defs>
  <style type="text/css">
   <![CDATA[
    .fil1 {fill:#ED1C26}
    .fil0 {fill:#ED1C26;fill-rule:nonzero}
   ]]>
  </style>
 </defs>
 <g id="Слой_x0020_1">
  <metadata id="CorelCorpID_0Corel-Layer"/>
  <g id="_2890272676272">
   <path class="fil0" d="M13565 13356c200,0 381,81 512,212 131,131 212,313 212,513 0,200 -81,381 -212,512 -131,131 -312,212 -512,212 -200,0 -381,-81 -513,-212 -131,-131 -212,-312 -212,-512 0,-200 81,-382 212,-513 132,-131 313,-212 513,-212zm406 318c-104,-104 -248,-168 -406,-168 -159,0 -303,64 -406,168 -104,104 -169,248 -169,407 0,158 65,302 169,406 103,104 247,168 406,168 158,0 302,-64 406,-168 104,-104 168,-248 168,-406 0,-159 -64,-303 -168,-407z"/>
   <polygon class="fil0" points="14044,14517 14638,15133 14494,15271 13901,14656 "/>
   <path class="fil1" d="M11436 16277c87,-152 332,-756 462,-756 129,1 174,269 314,271 140,1 220,-560 401,-556 180,3 278,415 416,412 138,-2 328,-601 513,-598 186,4 212,76 663,1227l-2769 0z"/>
   <g>
    <path class="fil0" d="M11853 14937l3 100 0 0 -6 1 -7 1 -7 3 -8 3 -8 5 -9 6 -9 8 -10 8 -9 10 -10 11 -10 12 -10 13 -10 13 -10 14 -10 15 -9 16 -10 16 -9 16 -10 17 -9 16 -9 17 -10 17 -9 17 -8 17 -9 16 -9 16 -8 16 -8 15 -9 15 -8 15 -8 13 -8 13 -84 -53 7 -11 7 -13 7 -13 8 -14 8 -14 8 -16 9 -16 8 -16 9 -17 9 -17 10 -17 9 -18 10 -17 10 -18 10 -17 11 -18 10 -17 11 -16 12 -17 11 -16 12 -15 12 -15 13 -14 13 -13 14 -12 14 -12 15 -10 16 -9 16 -8 18 -6 18 -4 19 -2 0 0zm326 226l4 100 0 0 -18 0 -18 -2 -17 -4 -16 -5 -15 -7 -14 -8 -13 -9 -12 -9 -12 -10 -11 -11 -11 -10 -10 -11 -10 -11 -9 -11 -9 -11 -9 -11 -9 -11 -9 -10 -8 -10 -9 -10 -8 -9 -8 -8 -8 -8 -8 -6 -8 -6 -7 -5 -7 -4 -7 -3 -7 -3 -6 -2 -7 0 -7 -1 -3 -100 18 1 18 2 16 4 16 6 15 7 14 8 13 9 12 9 12 10 11 11 10 10 10 11 10 11 10 11 9 11 9 11 8 11 9 10 9 10 8 10 8 8 8 9 8 7 8 7 8 6 7 4 7 4 7 4 7 2 7 1 6 1 8 0 0 0zm417 -495l2 100 0 0 -6 1 -6 1 -8 4 -9 6 -11 8 -11 11 -11 13 -12 14 -12 17 -12 17 -13 20 -12 20 -13 21 -12 22 -13 23 -12 23 -13 23 -12 23 -13 22 -13 23 -12 22 -13 21 -13 21 -14 19 -14 19 -14 17 -15 16 -16 14 -17 13 -19 10 -21 8 -23 3 -4 -100 2 0 5 -2 6 -3 8 -6 9 -8 10 -11 11 -13 11 -15 11 -17 12 -18 12 -19 12 -21 12 -21 12 -23 13 -22 12 -23 13 -24 13 -23 13 -23 13 -22 14 -22 13 -22 14 -20 15 -20 15 -19 16 -17 16 -16 18 -14 19 -12 21 -10 23 -7 23 -2 0 0zm379 300l2 100 0 0 -19 -2 -18 -3 -17 -6 -16 -8 -15 -9 -13 -10 -14 -11 -12 -12 -12 -12 -12 -13 -12 -13 -11 -14 -11 -14 -11 -14 -12 -14 -11 -14 -11 -14 -11 -14 -11 -13 -11 -13 -11 -12 -10 -11 -11 -10 -11 -10 -10 -8 -11 -7 -10 -6 -9 -5 -10 -4 -8 -2 -9 -2 -9 0 -2 -100 21 1 20 3 19 5 18 7 18 9 16 10 16 11 14 12 15 12 13 13 13 14 13 14 13 14 12 15 11 14 12 15 11 14 11 14 11 13 10 13 11 13 10 11 9 11 10 10 9 8 8 7 8 6 7 5 7 3 5 1 4 1 4 1 0 0zm592 -834l88 48 -18 33 -20 34 -19 34 -21 35 -21 36 -21 36 -22 36 -22 37 -22 36 -23 36 -23 36 -23 36 -23 35 -23 35 -23 34 -23 33 -22 32 -23 31 -22 30 -22 29 -21 27 -21 25 -21 24 -20 23 -20 20 -19 19 -19 16 -19 15 -19 12 -19 10 -21 7 -23 4 -2 -100 0 -1 6 -1 8 -5 12 -8 13 -10 15 -13 16 -16 18 -18 18 -20 19 -22 20 -24 20 -26 21 -27 22 -29 21 -30 22 -31 23 -33 22 -33 23 -34 22 -34 23 -35 22 -36 23 -36 22 -36 22 -35 21 -36 21 -36 21 -35 20 -35 20 -34 18 -33 18 -32zm-204 -67l459 -288 -2 542 -457 -254z"/>
   </g>
  </g>
 </g>
</svg>
