<?xml version="1.0" encoding="UTF-8"?>
<!DOCTYPE svg PUBLIC "-//W3C//DTD SVG 1.1//EN" "http://www.w3.org/Graphics/SVG/1.1/DTD/svg11.dtd">
<!-- Creator: CorelDRAW X7 -->
<svg xmlns="http://www.w3.org/2000/svg" xml:space="preserve" width="210mm" height="297mm" version="1.1" style="shape-rendering:geometricPrecision; text-rendering:geometricPrecision; image-rendering:optimizeQuality; fill-rule:evenodd; clip-rule:evenodd"
viewBox="0 0 21000 29700"
 xmlns:xlink="http://www.w3.org/1999/xlink">
 <defs>
  <style type="text/css">
   <![CDATA[
    .str2 {stroke:#ED1C26;stroke-width:100}
    .str0 {stroke:#ED1C26;stroke-width:75}
    .str1 {stroke:#ED1C26;stroke-width:7.62}
    .fil1 {fill:none}
    .fil2 {fill:#ED1C26}
    .fil0 {fill:#ED1C26;fill-rule:nonzero}
   ]]>
  </style>
 </defs>
 <g id="Слой_x0020_1">
  <metadata id="CorelCorpID_0Corel-Layer"/>
  <g id="_2890272663344">
   <path class="fil0" d="M2315 18357l763 0 0 4c0,66 54,119 119,119 66,0 119,-53 119,-119l0 -4 763 0c97,0 185,40 249,104 64,63 104,151 104,248l0 2399c0,97 -40,185 -104,249 -64,64 -152,104 -249,104l-1764 0c-97,0 -185,-40 -249,-104 -63,-64 -103,-152 -103,-249l0 -2399c0,-97 40,-185 103,-248 64,-64 152,-104 249,-104zm1764 150l-1764 0c-55,0 -106,23 -142,60 -37,36 -60,87 -60,142l0 2399c0,56 23,106 60,143 36,37 87,60 142,60l1764 0c56,0 106,-23 143,-60 37,-37 60,-87 60,-143l0 -2399c0,-55 -23,-106 -60,-142 -37,-37 -87,-60 -143,-60z"/>
   <rect class="fil1 str0" x="2450" y="18968" width="476" height="476"/>
   <rect class="fil1 str0" x="2450" y="19700" width="476" height="476"/>
   <rect class="fil1 str0" x="2450" y="20432" width="476" height="476"/>
   <path class="fil2 str1" d="M2943 18074l509 0c89,0 162,73 162,163l0 411 -833 0 0 -411c0,-90 73,-163 162,-163zm254 168c66,0 119,53 119,119 0,66 -53,119 -119,119 -65,0 -119,-53 -119,-119 0,-66 54,-119 119,-119z"/>
   <polyline class="fil1 str2" points="2541,19136 2679,19329 3091,18952 "/>
   <polyline class="fil1 str2" points="2541,19863 2679,20057 3091,19680 "/>
  </g>
 </g>
</svg>
