<?xml version="1.0" encoding="UTF-8"?>
<!DOCTYPE svg PUBLIC "-//W3C//DTD SVG 1.1//EN" "http://www.w3.org/Graphics/SVG/1.1/DTD/svg11.dtd">
<!-- Creator: CorelDRAW X7 -->
<svg xmlns="http://www.w3.org/2000/svg" xml:space="preserve" width="210mm" height="297mm" version="1.1" style="shape-rendering:geometricPrecision; text-rendering:geometricPrecision; image-rendering:optimizeQuality; fill-rule:evenodd; clip-rule:evenodd"
viewBox="0 0 21000 29700"
 xmlns:xlink="http://www.w3.org/1999/xlink">
 <defs>
  <style type="text/css">
   <![CDATA[
    .fil0 {fill:#ED1C26}
   ]]>
  </style>
 </defs>
 <g id="Слой_x0020_1">
  <metadata id="CorelCorpID_0Corel-Layer"/>
  <path class="fil0" d="M11595 18442c-49,3 -41,4 -75,36 -29,65 -19,1283 -10,1451 22,390 346,721 763,706 401,-14 718,-343 715,-747 -2,-220 -106,-406 -215,-514 -204,-201 -359,-169 -501,-224l4 -263c257,-30 524,143 656,259 564,494 392,1462 -355,1712 -567,190 -1044,-137 -1230,-493 -230,-437 -46,-1201 -120,-1697 -297,219 -557,725 -568,1111 -12,409 68,739 298,1058 254,351 618,563 1052,643 203,38 479,7 632,-30 520,-125 877,-484 1082,-939 156,-345 157,-787 32,-1144 -117,-335 -310,-567 -582,-773 -74,-56 -351,-225 -453,-220 -326,-65 -464,-102 -815,-30 -25,260 -3,634 -3,907 0,210 -39,697 61,838 144,202 454,213 586,-19 90,-159 45,-365 -116,-465 -59,-38 -74,-33 -134,-54l-24 -271c324,-33 635,332 595,688 -65,579 -822,748 -1136,281 -115,-173 -109,-289 -109,-524 -1,-424 4,-850 -1,-1274 -16,-15 24,-17 -29,-9z"/>
 </g>
</svg>
