<?xml version="1.0" encoding="UTF-8"?>
<!DOCTYPE svg PUBLIC "-//W3C//DTD SVG 1.1//EN" "http://www.w3.org/Graphics/SVG/1.1/DTD/svg11.dtd">
<!-- Creator: CorelDRAW X7 -->
<svg xmlns="http://www.w3.org/2000/svg" xml:space="preserve" width="210mm" height="297mm" version="1.1" style="shape-rendering:geometricPrecision; text-rendering:geometricPrecision; image-rendering:optimizeQuality; fill-rule:evenodd; clip-rule:evenodd"
viewBox="0 0 21000 29700"
 xmlns:xlink="http://www.w3.org/1999/xlink">
 <defs>
  <style type="text/css">
   <![CDATA[
    .str0 {stroke:#ED1C26;stroke-width:25;stroke-linecap:round;stroke-linejoin:round}
    .fil0 {fill:#ED1C26}
    .fil1 {fill:#ED1C26;fill-rule:nonzero}
   ]]>
  </style>
 </defs>
 <g id="Слой_x0020_1">
  <metadata id="CorelCorpID_0Corel-Layer"/>
  <g id="_2890276759360">
   <path class="fil0" d="M12491 9221l0 0zm-507 -130l0 0zm2080 1348l0 0zm-60 -61l0 0zm-299 -299l0 0zm-400 -108c-18,7 -27,12 -47,7 -17,-5 -26,-14 -43,-33l-1 0c-12,-13 -30,-33 -63,-64 -78,-77 -155,-155 -233,-233l0 0 -81 -80 0 0 -3 -4c-110,-109 -241,-231 -343,-343l-6 -6c-34,-34 -68,-67 -102,-101 -43,-43 -43,-44 -44,-83 -1,-13 -2,-36 -14,-88 -4,-19 -12,-39 -21,-58 -10,-20 -22,-38 -35,-52 -23,-27 -59,-49 -94,-71 -20,-12 -39,-24 -58,-37l-3 -2 -246 -161c-25,-11 -46,-8 -64,3 -25,14 -49,41 -71,68 -26,30 -3,67 14,96l5 8 188 289 11 19c9,14 18,28 25,37l8 8c12,13 27,25 44,36 16,10 33,19 49,25 12,4 28,8 43,11l0 0c13,3 26,7 35,9 15,5 23,7 30,6 7,0 18,-2 34,-6l24 -5c306,304 609,610 913,916l-4 23c-5,27 -13,47 -20,67 -14,37 -27,73 -10,168 6,28 18,56 34,83 19,33 44,63 69,88l15 14c7,8 14,14 23,24l77 76c7,8 13,14 19,19 8,7 15,14 22,21l0 0c8,8 13,14 18,19 5,6 10,11 17,17 97,97 195,195 292,292 53,58 103,107 159,138 55,30 118,44 199,36 12,-2 30,-6 49,-12l0 0c21,-7 41,-14 52,-21 35,-18 64,-42 89,-69 45,-50 73,-113 81,-178 9,-66 -3,-134 -36,-194 -17,-32 -40,-62 -70,-89l-5 -5c-4,-3 -7,-6 -13,-12l-12 -12c-35,-35 -70,-70 -106,-106 -10,-10 -20,-20 -31,-30l-57 -58 0 0 -3 -3 -57 -57 0 0c-48,-48 -95,-96 -142,-144 -9,-9 -16,-16 -24,-23l-15 -14 -1 -1 -60 -60 -3 -3c-5,-5 -10,-11 -15,-16 -38,-42 -85,-75 -137,-95 -49,-19 -102,-26 -155,-18 -55,8 -78,18 -90,24z"/>
   <path class="fil1 str0" d="M13758 8414l21 0c99,-1 220,-1 314,44l56 27 -291 295 0 0 -30 30c-73,71 -147,143 -147,246 0,48 16,96 43,137 26,39 62,70 102,85 38,14 67,21 94,22 27,0 56,-7 95,-21l0 0c9,-3 10,-3 11,-4 4,-3 8,-7 18,-13 63,-42 160,-143 245,-232 67,-71 127,-134 164,-158l36 -25 25 37c15,22 28,63 37,108 11,50 18,106 18,138 0,120 -24,228 -69,324 -46,99 -115,185 -204,258l-11 10 -1 1c-1,1 0,0 -1,0l-5 5 -4 3 0 0 -5 3 0 0c-5,3 -9,6 -12,8l0 0c-2,1 -4,2 -11,7 -19,14 -29,20 -44,28l-15 8c-17,10 -28,14 -42,21l-17 8c-39,13 -96,36 -134,44 -20,5 -49,9 -78,11 -31,3 -61,5 -84,5 -62,0 -100,-7 -141,-16 -42,-8 -89,-17 -182,-17 -19,0 -34,4 -49,8 -21,6 -42,12 -72,12l-42 -31 -9 -9 0 0 -210 -209c-10,-10 -18,-19 -27,-28l-130 -129 16 -29c17,-33 42,-56 69,-81 9,-9 19,-19 28,-28 12,-12 20,-20 27,-26 7,-6 9,-8 8,-15 -10,-76 -10,-82 -10,-136 0,4 0,6 0,-37 0,-30 2,-57 6,-81 5,-25 11,-47 18,-71l0 0c18,-56 33,-102 56,-150 23,-47 53,-92 100,-144 2,-1 4,-3 5,-5l58 -59 2 -2c41,-32 81,-61 123,-86 43,-25 89,-46 141,-62l3 -1c44,-9 88,-19 132,-28l6 0zm21 88l-16 0 -121 26c-45,15 -84,33 -121,54 -38,22 -73,47 -110,77l-55 56 0 0 -2 2c-41,45 -67,84 -86,123 -20,40 -34,84 -51,137 -7,21 -12,40 -15,59 -3,20 -5,41 -5,67 0,34 0,10 0,36 -1,50 -1,55 9,125 7,54 -1,61 -36,93 -6,6 -15,13 -23,22 -11,11 -22,21 -32,31 -12,10 -23,21 -32,32l80 80c10,9 18,18 28,28l208 208 0 0c4,3 9,8 12,12 9,-2 17,-4 25,-7 22,-5 43,-11 73,-11 100,0 152,10 200,20 35,7 68,13 123,13 22,0 50,-1 76,-4 24,-2 48,-6 67,-9l119 -40 14 -7c12,-5 21,-9 36,-17l16 -9c12,-7 20,-11 34,-21 8,-6 12,-9 17,-12l-1 0c2,-1 4,-2 9,-5l0 0c8,-5 11,-9 18,-15l1 -1c80,-65 141,-141 182,-228 39,-85 60,-180 60,-287 0,-27 -6,-76 -16,-120 -2,-9 -4,-18 -6,-27 -29,28 -66,67 -105,108 -88,92 -188,198 -261,245 -4,3 -7,5 -9,7 -9,8 -14,12 -39,20 -48,17 -86,25 -125,25 -39,0 -76,-9 -124,-27 -58,-21 -109,-65 -145,-120 -36,-54 -58,-120 -58,-185 0,-140 87,-225 174,-309 6,-7 12,-13 29,-30l0 0 198 -200c-67,-15 -146,-15 -214,-15zm-1133 1323l190 187 0 0c32,32 59,59 82,81 60,59 87,86 100,107 20,32 15,46 5,71 -3,8 -7,19 -8,38 -1,24 -2,39 -3,51 -4,51 -4,54 16,139l4 18 -11 17c-19,28 -393,399 -551,555 -21,21 -30,31 -64,65l0 0 -11 11c-71,70 -80,79 -182,122 -49,21 -96,20 -145,20l-25 0c-68,0 -140,-30 -201,-76 -62,-47 -114,-111 -140,-178 -5,-12 -7,-18 -9,-25 0,-3 -1,-7 -3,-13 -2,-4 -3,-7 -4,-10 -2,-7 -4,-13 -7,-24 -3,-14 -6,-27 -7,-40 -2,-13 -3,-27 -3,-42 0,-38 6,-75 17,-109 10,-34 24,-66 41,-96 12,-19 19,-32 29,-45 10,-13 21,-25 39,-42 5,-4 6,-5 7,-7l0 0c2,-2 5,-5 8,-8l0 0c143,-143 285,-292 430,-432 63,-62 125,-125 188,-188l0 0c4,-4 10,-9 15,-14 5,-4 10,-8 15,-14l13 -14c34,-36 88,-94 123,-113l29 -15 23 23zm127 250l-162 -160c-24,21 -54,53 -75,75l-14 15c-7,8 -13,13 -20,19 -3,3 -6,5 -11,11l-1 0c-44,45 -89,91 -135,135 -20,20 -40,41 -60,61l-422 423 0 1 -6 5 0 0c-2,3 -4,5 -13,13 -13,12 -21,20 -27,29 -7,8 -13,19 -22,36 -15,25 -26,51 -35,77 -7,26 -12,54 -12,84 0,11 1,22 2,31 1,11 3,21 5,31 1,4 3,9 5,14 1,4 3,8 4,13 2,7 4,13 5,17 2,5 3,9 5,17 20,51 61,101 111,138 47,35 100,58 148,58l26 0c39,1 77,1 109,-13 87,-36 95,-44 154,-103l11 -11 0 0c16,-16 21,-20 65,-64 142,-142 463,-459 528,-530 -18,-77 -17,-85 -13,-143 1,-15 3,-32 4,-49 1,-32 8,-50 12,-63 -10,-13 -35,-37 -83,-85 -22,-22 -49,-49 -83,-82l0 0z"/>
  </g>
 </g>
</svg>
