<?xml version="1.0" encoding="UTF-8"?>
<!DOCTYPE svg PUBLIC "-//W3C//DTD SVG 1.1//EN" "http://www.w3.org/Graphics/SVG/1.1/DTD/svg11.dtd">
<!-- Creator: CorelDRAW X7 -->
<svg xmlns="http://www.w3.org/2000/svg" xml:space="preserve" width="210mm" height="297mm" version="1.1" style="shape-rendering:geometricPrecision; text-rendering:geometricPrecision; image-rendering:optimizeQuality; fill-rule:evenodd; clip-rule:evenodd"
viewBox="0 0 21000 29700"
 xmlns:xlink="http://www.w3.org/1999/xlink">
 <defs>
  <style type="text/css">
   <![CDATA[
    .fil1 {fill:#ED1C26}
    .fil0 {fill:#ED1C26;fill-rule:nonzero}
   ]]>
  </style>
 </defs>
 <g id="Слой_x0020_1">
  <metadata id="CorelCorpID_0Corel-Layer"/>
  <g id="_2110181373184">
   <path class="fil0" d="M1793 8301l2928 0c100,0 191,41 257,107 66,67 107,158 107,258l0 1940c0,101 -41,192 -107,258 -66,66 -157,107 -257,107l-2928 0c-101,0 -192,-41 -258,-107 -66,-66 -107,-157 -107,-258l0 -1940c0,-100 41,-191 107,-258 66,-66 157,-107 258,-107zm2928 200l-2928 0c-45,0 -86,19 -116,49 -30,30 -49,71 -49,116l0 1940c0,45 19,87 49,116 30,30 71,49 116,49l2928 0c45,0 86,-19 116,-49 30,-29 48,-71 48,-116l0 -1940c0,-45 -18,-86 -48,-116 -30,-30 -71,-49 -116,-49z"/>
   <path class="fil1" d="M3051 11034l412 0c27,0 49,31 49,68l0 157 435 0c41,0 75,47 75,105l0 33c0,57 -34,104 -75,104l-1380 0c-41,0 -75,-47 -75,-104l0 -33c0,-58 34,-105 75,-105l435 0 0 -157c0,-37 22,-68 49,-68z"/>
   <polygon class="fil0" points="2779,9648 3122,10024 4110,8858 4348,9060 3131,10496 2548,9858 "/>
  </g>
 </g>
</svg>
