<?xml version="1.0" encoding="UTF-8"?>
<!DOCTYPE svg PUBLIC "-//W3C//DTD SVG 1.1//EN" "http://www.w3.org/Graphics/SVG/1.1/DTD/svg11.dtd">
<!-- Creator: CorelDRAW X7 -->
<svg xmlns="http://www.w3.org/2000/svg" xml:space="preserve" width="210mm" height="297mm" version="1.1" style="shape-rendering:geometricPrecision; text-rendering:geometricPrecision; image-rendering:optimizeQuality; fill-rule:evenodd; clip-rule:evenodd"
viewBox="0 0 21000 29700"
 xmlns:xlink="http://www.w3.org/1999/xlink">
 <defs>
  <style type="text/css">
   <![CDATA[
    .str1 {stroke:#ED1C26;stroke-width:75}
    .str0 {stroke:#ED1C26;stroke-width:20}
    .fil2 {fill:none}
    .fil1 {fill:#ED1C26}
    .fil0 {fill:#ED1C26;fill-rule:nonzero}
   ]]>
  </style>
 </defs>
 <g id="Слой_x0020_1">
  <metadata id="CorelCorpID_0Corel-Layer"/>
  <g id="_2854451166448">
   <path class="fil0" d="M16401 13160l1764 0c108,0 206,44 277,115 72,71 116,170 116,278l0 172 -150 140 0 -312c0,-67 -28,-128 -72,-172 -44,-44 -104,-71 -171,-71l-1764 0c-66,0 -127,27 -171,71 -44,44 -71,105 -71,172l0 2398c0,67 27,128 71,172 44,44 105,71 171,71l1764 0c67,0 127,-27 171,-71 44,-44 72,-105 72,-172l0 -852 150 -140 0 992c0,108 -44,207 -116,278 -71,71 -169,115 -277,115l-1764 0c-108,0 -206,-44 -277,-115 -71,-71 -115,-170 -115,-278l0 -2398c0,-108 44,-207 115,-278 71,-71 169,-115 277,-115z"/>
   <rect class="fil1 str0" transform="matrix(-0.597889 -0.641372 0.880336 -0.820652 17664.9 15544.4)" width="617" height="1482"/>
   <path class="fil2 str1" d="M19030 14244l-343 -367 79 -74c44,-41 113,-38 154,5l194 209c41,44 39,113 -5,153l-79 74z"/>
   <polygon class="fil2 str1" points="17003,15780 17124,15528 17253,15258 17402,15418 17550,15577 17272,15687 17006,15793 16992,15799 16990,15791 "/>
   <rect class="fil1" x="16357" y="13687" width="1852" height="141"/>
   <polygon class="fil1" points="16357,14093 18161,14093 18010,14234 16357,14234 "/>
   <polygon class="fil1" points="16357,14499 17726,14499 17575,14640 16357,14640 "/>
   <polygon class="fil1" points="16357,14904 17291,14904 17140,15045 16357,15045 "/>
   <path class="fil1" d="M16357 15310l697 0 -79 141 -618 0 0 -141zm1826 0l26 0 0 141 -177 0 151 -141z"/>
   <polygon class="fil1" points="16357,15716 17011,15716 16964,15856 16357,15857 "/>
  </g>
 </g>
</svg>
