<?xml version="1.0" encoding="UTF-8"?>
<!DOCTYPE svg PUBLIC "-//W3C//DTD SVG 1.1//EN" "http://www.w3.org/Graphics/SVG/1.1/DTD/svg11.dtd">
<!-- Creator: CorelDRAW X7 -->
<svg xmlns="http://www.w3.org/2000/svg" xml:space="preserve" width="210mm" height="297mm" version="1.1" style="shape-rendering:geometricPrecision; text-rendering:geometricPrecision; image-rendering:optimizeQuality; fill-rule:evenodd; clip-rule:evenodd"
viewBox="0 0 21000 29700"
 xmlns:xlink="http://www.w3.org/1999/xlink">
 <defs>
  <style type="text/css">
   <![CDATA[
    .fil0 {fill:#ED1C26}
   ]]>
  </style>
 </defs>
 <g id="Слой_x0020_1">
  <metadata id="CorelCorpID_0Corel-Layer"/>
  <g id="_2890165191600">
   <path class="fil0" d="M6273 14182l0 60c19,25 27,76 92,99 62,21 450,-6 577,9 16,30 430,1370 471,1494 117,355 45,321 470,321l1376 0c82,0 107,-7 148,-54 57,-65 38,-217 -114,-222 -505,-16 -1073,17 -1574,-1 -14,-25 -104,-312 -106,-344 519,-1 1038,0 1557,0 134,0 235,14 327,-55 84,-64 95,-136 123,-267l141 -638 0 -43c-7,-15 -10,-45 -19,-67 -71,-171 -281,-131 -466,-131 -227,0 -453,0 -680,0 -228,0 -456,0 -685,0 -154,0 -556,7 -680,-1 -26,-73 -46,-192 -97,-236 -59,-51 -210,-32 -303,-32 -112,0 -223,0 -335,0 -53,0 -107,-7 -151,17 -55,30 -51,60 -72,91zm1278 1169c295,6 598,-4 891,-4 111,0 751,12 963,1l71 -317 -2026 0 101 320zm-151 -477c142,3 369,-3 461,-3l1651 -1 70 -316 -2284 -1 102 321z"/>
   <path class="fil0" d="M8991 16296c-254,27 -212,420 51,386 99,-13 182,-107 166,-222 -13,-96 -103,-177 -217,-164z"/>
   <path class="fil0" d="M7777 16295c-252,29 -215,422 50,387 100,-13 179,-104 165,-220 -12,-97 -103,-179 -215,-167z"/>
  </g>
 </g>
</svg>
