<?xml version="1.0" encoding="UTF-8"?>
<!DOCTYPE svg PUBLIC "-//W3C//DTD SVG 1.1//EN" "http://www.w3.org/Graphics/SVG/1.1/DTD/svg11.dtd">
<!-- Creator: CorelDRAW X7 -->
<svg xmlns="http://www.w3.org/2000/svg" xml:space="preserve" width="210mm" height="297mm" version="1.1" style="shape-rendering:geometricPrecision; text-rendering:geometricPrecision; image-rendering:optimizeQuality; fill-rule:evenodd; clip-rule:evenodd"
viewBox="0 0 21000 29700"
 xmlns:xlink="http://www.w3.org/1999/xlink">
 <defs>
  <style type="text/css">
   <![CDATA[
    .fil0 {fill:#ED1C26}
   ]]>
  </style>
 </defs>
 <g id="Слой_x0020_1">
  <metadata id="CorelCorpID_0Corel-Layer"/>
  <path class="fil0" d="M1439 14557l0 1671c0,170 170,340 340,340l2765 0c170,0 340,-170 340,-340l0 -1671c0,-81 -50,-180 -105,-235 -55,-55 -154,-106 -235,-106l-2765 0c-46,0 -99,19 -133,34 -18,8 -40,22 -54,33 -48,36 -92,81 -118,137 -15,32 -35,90 -35,137zm2360 868c80,90 226,225 321,317l108 110c75,72 145,141 220,213 39,38 187,196 219,214 9,-25 17,-54 17,-87l0 -1600c0,-21 -2,-43 -8,-59 -100,96 -221,231 -323,335 -36,37 -70,83 -109,115 -31,27 -249,257 -333,333 -20,18 -35,37 -56,56 -16,14 -44,35 -56,53zm-2066 925c37,26 139,18 194,18l2581 0c31,0 61,-3 82,-18 -13,-22 -148,-147 -187,-185 -11,-10 -15,-18 -26,-30l-219 -212c-73,-71 -144,-145 -217,-215 -37,-37 -71,-69 -108,-105 -28,-28 -83,-87 -112,-108 -41,28 -157,138 -250,204 -269,187 -348,192 -619,0 -85,-59 -208,-174 -249,-204l-655 638c-9,9 -14,18 -23,27 -41,44 -175,162 -192,190zm-95 -1758l1 1600c0,33 8,62 17,87 17,-10 409,-398 436,-424l106 -108c38,-37 73,-70 111,-107 73,-71 146,-138 215,-215l-224 -216c-75,-74 -146,-146 -218,-223l-405 -424c-4,-5 -7,-9 -11,-13 -15,-14 -3,-7 -22,-15l-6 58zm117 -167l281 296c15,17 26,29 41,46 14,15 25,28 39,42l418 416c69,63 143,139 219,202 57,48 305,266 409,264 163,-3 668,-502 753,-585 56,-56 108,-109 163,-166 26,-28 55,-62 82,-87l407 -427c-38,-20 -600,-10 -694,-10l-1418 0c-109,0 -641,-11 -700,9z"/>
 </g>
</svg>
