<?xml version="1.0" encoding="UTF-8"?>
<!DOCTYPE svg PUBLIC "-//W3C//DTD SVG 1.1//EN" "http://www.w3.org/Graphics/SVG/1.1/DTD/svg11.dtd">
<!-- Creator: CorelDRAW X7 -->
<svg xmlns="http://www.w3.org/2000/svg" xml:space="preserve" width="210mm" height="297mm" version="1.1" style="shape-rendering:geometricPrecision; text-rendering:geometricPrecision; image-rendering:optimizeQuality; fill-rule:evenodd; clip-rule:evenodd"
viewBox="0 0 21000 29700"
 xmlns:xlink="http://www.w3.org/1999/xlink">
 <defs>
  <style type="text/css">
   <![CDATA[
    .fil1 {fill:#ED1C26}
    .fil0 {fill:#ED1C26;fill-rule:nonzero}
   ]]>
  </style>
 </defs>
 <g id="Слой_x0020_1">
  <metadata id="CorelCorpID_0Corel-Layer"/>
  <g id="_2855633878896">
   <path class="fil0" d="M7887 8131l2074 265c117,15 217,76 284,163 67,86 101,198 86,315l-157 1227c-15,116 -77,216 -163,283 -87,67 -199,101 -315,86l-98 -13 0 -171 119 15c70,9 138,-12 190,-52 52,-40 89,-100 98,-170l157 -1226c9,-70 -12,-138 -52,-190 -40,-52 -100,-89 -170,-98l-2074 -265c-70,-9 -138,11 -190,51 -52,41 -89,100 -98,170l-52 406 -171 0 54 -427c15,-117 76,-217 163,-283 84,-66 193,-100 306,-87l9 1z"/>
   <path class="fil0" d="M6955 9034l2091 0c116,0 221,47 298,123 76,77 123,182 123,298l0 1237c0,116 -47,221 -123,297 -77,77 -182,124 -298,124l-2091 0c-116,0 -222,-47 -298,-124 -76,-76 -124,-181 -124,-297l0 -1237c0,-116 48,-221 124,-298 76,-76 182,-123 298,-123zm2091 159l-2091 0c-72,0 -138,29 -185,77 -48,47 -77,113 -77,185l0 1237c0,72 29,137 77,185 47,47 113,77 185,77l2091 0c72,0 138,-30 185,-77 48,-48 77,-113 77,-185l0 -1237c0,-72 -29,-137 -77,-185 -47,-48 -113,-77 -185,-77z"/>
   <rect class="fil1" x="6613" y="9455" width="2775" height="397"/>
   <circle class="fil1" cx="8215" cy="10396" r="307"/>
   <circle class="fil1" cx="8705" cy="10396" r="307"/>
  </g>
 </g>
</svg>
