<?xml version="1.0" encoding="UTF-8"?>
<!DOCTYPE svg PUBLIC "-//W3C//DTD SVG 1.1//EN" "http://www.w3.org/Graphics/SVG/1.1/DTD/svg11.dtd">
<!-- Creator: CorelDRAW X7 -->
<svg xmlns="http://www.w3.org/2000/svg" xml:space="preserve" width="210mm" height="297mm" version="1.1" style="shape-rendering:geometricPrecision; text-rendering:geometricPrecision; image-rendering:optimizeQuality; fill-rule:evenodd; clip-rule:evenodd"
viewBox="0 0 21000 29700"
 xmlns:xlink="http://www.w3.org/1999/xlink">
 <defs>
  <style type="text/css">
   <![CDATA[
    .fil0 {fill:#ED1C26}
   ]]>
  </style>
 </defs>
 <g id="Слой_x0020_1">
  <metadata id="CorelCorpID_0Corel-Layer"/>
  <path class="fil0" d="M16191 8371c-104,25 -147,101 -147,224l0 2236c0,137 -8,238 82,297 79,52 227,35 339,35 258,0 2540,11 2613,-6 101,-23 144,-104 144,-225l0 -2235c0,-139 11,-236 -81,-297 -84,-54 -228,-35 -339,-35 -258,0 -2540,-11 -2611,6zm895 2661l1095 1c-14,-230 -265,-464 -548,-464 -287,0 -537,242 -547,463zm-922 -129l4 79c47,-123 191,-82 330,-88 22,-119 82,-209 121,-303 -238,-243 -242,-229 -25,-442 216,-213 207,-221 443,25 94,-43 187,-100 303,-121 6,-243 -49,-334 204,-334l232 0c207,0 130,172 154,331 42,19 110,38 155,55 54,21 96,47 145,69 41,-42 150,-165 205,-178 103,-22 233,145 331,246 100,102 75,157 -21,252 -31,31 -64,65 -97,97 41,98 95,179 121,304 141,5 280,-36 329,86l5 -2099 -2939 0 0 2021zm1999 -2369c-40,19 -44,13 -68,54 -19,34 -22,71 -7,107 61,152 295,66 236,-91 -22,-59 -93,-104 -161,-70zm712 -7c-159,43 -105,278 57,246 164,-33 107,-290 -57,-246zm-354 1c-168,58 -84,290 76,241 152,-48 79,-294 -76,-241z"/>
 </g>
</svg>
