<?xml version="1.0" encoding="UTF-8"?>
<!DOCTYPE svg PUBLIC "-//W3C//DTD SVG 1.1//EN" "http://www.w3.org/Graphics/SVG/1.1/DTD/svg11.dtd">
<!-- Creator: CorelDRAW X7 -->
<svg xmlns="http://www.w3.org/2000/svg" xml:space="preserve" width="210mm" height="297mm" version="1.1" style="shape-rendering:geometricPrecision; text-rendering:geometricPrecision; image-rendering:optimizeQuality; fill-rule:evenodd; clip-rule:evenodd"
viewBox="0 0 21000 29700"
 xmlns:xlink="http://www.w3.org/1999/xlink">
 <defs>
  <style type="text/css">
   <![CDATA[
    .str0 {stroke:#ED1C26;stroke-width:100}
    .fil1 {fill:none}
    .fil0 {fill:#ED1C26}
   ]]>
  </style>
 </defs>
 <g id="Слой_x0020_1">
  <metadata id="CorelCorpID_0Corel-Layer"/>
  <g id="_2890279810208">
   <path class="fil0" d="M5730 18680c0,358 57,655 188,984 16,39 30,74 48,110 10,19 13,32 24,50l81 151c50,84 125,205 186,279l219 250 245 214c31,25 60,45 91,67 63,44 121,83 190,122l204 107c35,18 70,32 107,46 200,81 390,135 610,166 159,21 221,24 377,24 67,0 132,-66 132,-132l0 -554c0,-179 -219,-137 -329,-152 -100,-13 -204,-30 -298,-60 -77,-25 -102,-38 -178,-8 -50,20 -122,104 -162,145 -32,32 -183,187 -204,201 -13,-3 -66,-31 -81,-40 -14,-8 -23,-14 -36,-22 -75,-45 -194,-120 -257,-176 -41,-38 -158,-134 -196,-179 -28,-32 -89,-90 -116,-126l-110 -139c-18,-24 -33,-45 -51,-70 -48,-69 -101,-160 -140,-234 17,-26 73,-76 99,-102l200 -200c114,-114 73,-123 50,-216 -26,-106 -64,-311 -64,-416 0,-100 -8,-222 -143,-222l-554 0c-66,0 -132,65 -132,132z"/>
   <path class="fil1 str0" d="M7681 19036c155,103 275,258 357,428 57,118 93,295 93,435l301 0c0,-230 -40,-374 -123,-568 -65,-154 -145,-252 -250,-367l-40 -40c-8,-7 -13,-13 -21,-21 -17,-17 -27,-24 -45,-40 -28,-24 -61,-50 -92,-71 -105,-72 -203,-126 -324,-167 -24,-8 -33,-13 -59,-20 -144,-40 -232,-57 -397,-57l0 301c224,0 420,67 600,187z"/>
   <path class="fil1 str0" d="M7616 19364l-96 -78c-60,-44 -160,-93 -236,-112 -93,-23 -112,-24 -203,-24l0 300c255,0 449,195 449,449l300 0c0,-122 -17,-220 -72,-329 -20,-41 -38,-75 -64,-110l-78 -96z"/>
  </g>
 </g>
</svg>
